<svg width="32" height="32" viewBox="0 0 32 32" fill="none" xmlns="http://www.w3.org/2000/svg">
<path d="M14.0151 19.8178L5.31489 29.759H1.73373L12.4744 17.483L12.7438 17.175L12.4953 16.85L1.01182 1.83398H9.87652L16.7174 10.8783L17.088 11.3682L17.4925 10.9059L25.4288 1.83398H29.0069L19.0124 13.2571L18.7444 13.5634L18.9899 13.888L30.9949 29.759H22.3725L14.7885 19.8434L14.4174 19.3582L14.0151 19.8178ZM23.0826 27.6258L23.2327 27.822H23.4797H26.1987H27.2037L26.5975 27.0204L9.04663 3.81511L8.89659 3.61672H8.64785H5.73013H4.71818L5.33298 4.42049L23.0826 27.6258Z" fill="white" stroke="#129BFF"/>
</svg>
