<svg xmlns="http://www.w3.org/2000/svg" width="20" height="20" viewBox="0 0 140 20" fill="none">
<circle cx="99.9288" cy="9.92885" r="9.92885" fill="#9B9B9B"/>
  <path d="M106.568 7.11292C106.142 7.30159 105.685 7.4292 105.205 7.48619C105.695 7.19257 106.071 6.72796 106.248 6.17345C105.79 6.44549 105.282 6.64283 104.741 6.7492C104.308 6.28814 103.692 6 103.008 6C101.698 6 100.635 7.06283 100.635 8.37327C100.635 8.55929 100.656 8.74035 100.697 8.91416C98.7246 8.81522 96.9758 7.87044 95.8051 6.43416C95.6009 6.7846 95.4837 7.19257 95.4837 7.62743C95.4837 8.45062 95.903 9.17735 96.5395 9.60283C96.1506 9.59062 95.7844 9.48389 95.4646 9.30566C95.4644 9.31575 95.4644 9.32584 95.4644 9.33575C95.4644 10.4857 96.2828 11.4448 97.3683 11.6627C97.1694 11.7172 96.9593 11.746 96.7432 11.746C96.5899 11.746 96.4414 11.7313 96.2966 11.7037C96.5986 12.6464 97.4749 13.3326 98.5136 13.3519C97.7012 13.9885 96.6781 14.3678 95.5658 14.3678C95.3747 14.3678 95.1853 14.3566 95 14.3345C96.0497 15.0081 97.2975 15.4009 98.6377 15.4009C103.003 15.4009 105.39 11.7846 105.39 8.64814C105.39 8.54531 105.388 8.44283 105.383 8.34124C105.847 8.00673 106.25 7.58885 106.568 7.11292Z" fill="white"/>
</svg>